<?xml version="1.0" encoding="utf-8"?>

<svg xmlns="http://www.w3.org/2000/svg" xmlns:xlink="http://www.w3.org/1999/xlink" width="2500" height="2500" viewBox="250 248 512 548" preserveAspectRatio="none">
  <path fill="#005BFF" d="M491.948 352.29L491.609 229.411C505.229 229.072 518.912 229.353 532.538 229.377L532.491 352.395C537.493 354.29 542.354 356.539 547.036 359.127C581.609 378.495 601.1 413.021 611.473 449.939L576.842 449.9C576.226 447.008 575.518 444.167 574.653 441.337C567.232 417.082 552.051 393.63 529.162 381.507C526.988 380.478 524.736 379.621 522.428 378.944C512.504 375.943 501.665 377.496 492.609 382.375C467.033 396.158 454.681 423.533 446.689 449.982L412.483 449.962C415.327 439.223 418.516 428.709 423.173 418.595C436.639 389.347 461.609 363.595 491.948 352.29Z"/>
  <path fill="#005BFF" d="M318.467 397.037C330.703 387.706 343.767 379.19 356.411 370.416L439.044 312.695C451.375 303.977 463.978 295.699 475.95 286.482C477.475 288.012 476.424 311.201 476.926 315.217C446.22 337.088 415.38 358.769 384.407 380.259C370.525 389.862 356.777 399.802 342.543 408.873L342.482 464.708C342.447 478.484 342.061 492.352 342.693 506.11C343.949 533.242 348.962 560.068 357.589 585.822C378.201 648.358 420.614 699.636 471.974 739.882C484.55 749.736 497.83 760.027 512.139 767.242C518.361 763.696 524.349 759.322 530.236 755.227C550.674 741.244 569.88 725.54 587.646 708.289C638.937 657.525 673.605 592.823 680.126 520.262C681.709 502.643 681.493 485.101 681.459 467.438L681.494 409.573C665.103 396.576 646.978 385.167 629.883 373.078C602.698 353.852 575.735 334.046 547.985 315.66C547.944 305.914 548.029 296.169 548.239 286.426C563.381 295.633 578.42 307.501 593.101 317.679C602.1 324.386 611.504 330.608 620.687 337.064L672.05 373.16C683.327 381.031 695.071 388.661 705.822 397.233C704.494 452.493 710.233 508.841 697.652 563.084C684.635 619.208 659.296 665.793 620.803 708.472C606.16 724.991 590.102 740.201 572.814 753.929C553.481 769.299 532.842 782.78 511.902 795.83C478.666 776.918 442.338 748.721 415.398 721.648C360.703 666.685 326.864 599.957 319.933 522.315C318.221 503.14 318.501 484.118 318.488 464.895L318.467 397.037Z"/>
  <path fill="#333333" d="M412.372 480.925C419.352 481.656 427.08 480.979 434.125 480.966L480.206 480.94L564.281 480.972C579.947 480.982 595.669 481.292 611.325 480.878C609.407 484.612 608.699 489.487 607.576 493.548C606.384 497.803 604.956 501.988 603.299 506.084C584.348 505.868 565.378 506.042 546.424 506.041L546.457 532.68C542.379 536.976 537.848 540.858 533.43 544.797L533.506 610.476L491.941 610.388L491.674 545.235C486.582 541.6 481.904 537.418 477.723 532.764L477.753 506.379C459.419 505.31 438.979 506.233 420.422 506.089C417.893 500.671 416.351 494.582 414.776 488.826C414.048 486.164 413.664 483.382 412.372 480.925Z"/>
  <path fill="#333333" d="M611.325 480.878C611.696 481.584 611.874 482.144 611.953 482.941C612.819 491.732 613.06 500.596 613.763 509.404C614.912 523.17 616.374 536.909 618.146 550.61C620.326 567.223 623.04 585.004 628.747 600.828C612.472 631.4 584.449 663.854 555.581 683.137L555.627 558.551C578.427 547.243 593.346 529.314 603.299 506.084C604.956 501.988 606.384 497.803 607.576 493.548C608.699 489.487 609.407 484.612 611.325 480.878Z"/>
  <path fill="#333333" d="M412.372 480.925C413.664 483.382 414.048 486.164 414.776 488.826C416.351 494.582 417.893 500.671 420.422 506.089C420.963 507.62 421.563 509.114 422.199 510.607C431.196 531.726 446.972 549.567 468.509 558.264L468.29 683.158C440.156 665.204 410.684 630.426 395.841 600.686C402.94 574.069 407.05 547.803 409.403 520.365C410.048 511.956 410.596 503.54 411.046 495.118C411.339 490.439 411.308 485.486 412.372 480.925Z"/>
</svg>
