

<svg xmlns="http://www.w3.org/2000/svg" width="1024" height="1024"><path
	fill='' d="M528.249 836.12c-178.755 8.968-330.93-128.681-339.879-307.437-8.949-178.756 128.718-330.916 307.475-339.844 178.729-8.928 330.859 128.712 339.806 307.44 8.948 178.728-128.675 330.873-307.402 339.841zm149.232-423.445c-4.445-2.8-10.052-4.635-14.915-6.71l-29.685-12.617-120.332-50.826-101.891 42.799c-51.226 21.773-102.363 43.971-153.901 64.987l-.009 47.139c24.322.026 48.798-.501 73.098.384 5.83-14.459 14.863-26.151 29.487-32.453 12.386-5.336 25.931-5.153 38.373-.093a49.383 49.383 0 0127.357 26.822c5.129 12.383 4.926 27.367-.266 39.698a50.131 50.131 0 01-27.192 26.893 49.707 49.707 0 01-38.702-.518c-11.211-4.792-21.763-15.119-26.315-26.5a73.518 73.518 0 01-1.732-4.877l-74.062-.037c-.201 15.556-.353 31.237.032 46.79l175.402 74.245 47.889 20.369c10.745 4.623 21.533 9.721 32.59 13.551 10.708-4.073 21.215-8.787 31.757-13.271l54.267-23.095c10.431-4.42 20.963-8.618 31.35-13.139 3.848-1.675 8.426-3.258 11.954-5.491 7.61-2.493 15.085-6.055 22.471-9.168a2936.84 2936.84 0 0036.171-15.214c22.126-9.464 44.744-18.139 66.563-28.264-.251-15.368-.175-30.753-.237-46.124-24.819-.517-49.775-.322-74.603-.195-2.236 7.866-6.227 14.423-11.955 20.278-10.24 10.467-23.772 14.667-38.115 14.76-5.142-.428-9.88-1.148-14.734-2.981a51.534 51.534 0 01-29.314-27.659c-5.185-11.749-5.218-25.578-.58-37.506a49.535 49.535 0 0126.672-27.868c14.887-6.462 28.019-4.913 42.707.977 12.988 7.484 20.025 15.64 26.124 29.314 24.618-.358 49.278-.089 73.901-.108l.082-46.464c-21.772-8.748-43.247-18.376-64.87-27.499-8.238-3.477-16.456-7.214-24.837-10.329zM544.915 700.832c-5.793 2.161-11.436 4.731-17.105 7.195.966 24.119.187 48.297.419 72.428 8.295-2.923 16.913-6.61 24.837-10.436 11.277-3.757 25.25-10.502 36.58-15.198a2196.76 2196.76 0 0086.33-37.061 3409.614 3409.614 0 0139.201-17.425c8.668-3.802 17.648-7.335 25.962-11.851a48.706 48.706 0 0011.827-8.996c13.61-13.918 14.516-28.975 14.472-47.406-.009-8.339-.076-16.678-.2-25.015-11.838 4.544-23.486 9.725-35.227 14.532a6597.935 6597.935 0 00-115.68 48.878l-48.518 20.437c-7.535 3.192-15.704 6.046-22.898 9.918zm-17.397-458.08l-.392 73.063 158.498 67.435 53.753 22.615c9.219 3.922 18.419 8.737 27.844 12.011.574-26.739 3.901-53.708-16.382-74.639a51.902 51.902 0 00-13.739-10.2c-11.978-6.09-24.916-10.844-37.268-16.148l-68.39-29.367-74.559-32.335c-9.75-4.169-19.471-8.639-29.365-12.435zm-31.596.748c-48.826 19.952-97.075 41.423-145.625 62.049l-48.922 20.965c-7.867 3.391-16.685 6.253-23.936 10.789-7.479 4.678-13.634 12.137-17.037 20.245a45.492 45.492 0 00-3.183 11.78c-1.34 10.179-.522 21.146-.496 31.415.013 5.283-.539 10.957.119 16.178l.524.369c79.462-34.547 160.27-66.087 239.479-101.235-.194-9.142.62-69.294-.663-72.343l-.26-.212zm-118.78 242.182c-14.567.912-25.608 13.508-24.603 28.07 1.005 14.561 13.671 25.521 28.226 24.424 14.424-1.088 25.265-13.616 24.269-28.047-.996-14.431-13.455-25.351-27.892-24.447zm263.734.944c-14.161 2.042-24.039 15.103-22.147 29.285 1.892 14.182 14.848 24.197 29.049 22.455a26.1 26.1 0 10-6.902-51.74zM257.311 606.52l-.257 27.541c-.146 17.458-.588 33.028 12.624 46.361 3.418 3.449 7.236 6.184 11.534 8.421 13.591 7.072 28.145 12.693 42.214 18.765l66.806 28.964 57.732 24.996c15.892 7.01 31.873 14.518 48.234 20.332.873-7.693.245-16.06.232-23.814-.028-16.66-.235-33.349.043-50.006-14.708-6.783-29.73-12.957-44.618-19.341l-74.012-31.554a12574.842 12574.842 0 00-120.532-50.665z"/><defs><linearGradient id="prefix__a" gradientUnits="userSpaceOnUse" x1="524.087" y1="323.25" x2="770.351" y2="336.774"><stop offset="0" stop-color="#333"/><stop offset="1" stop-color="#005BFF"/></linearGradient></defs><path fill="url(#prefix__a)" d="M527.126 315.815l.392-73.063c9.894 3.796 19.615 8.266 29.365 12.435l74.559 32.335 68.39 29.367c12.352 5.304 25.29 10.058 37.268 16.148a51.902 51.902 0 0113.739 10.2c20.283 20.931 16.956 47.9 16.382 74.639-9.425-3.274-18.625-8.089-27.844-12.011l-53.753-22.615-158.498-67.435z"/><defs><linearGradient id="prefix__b" gradientUnits="userSpaceOnUse" x1="256.371" y1="331.62" x2="496.629" y2="328.387"><stop offset="0" stop-color="#333"/><stop offset="1" stop-color="#333"/></linearGradient></defs><path fill="url(#prefix__b)" d="M257.366 417.29l-.524-.369c-.658-5.221-.106-10.895-.119-16.178-.026-10.269-.844-21.236.496-31.415a45.492 45.492 0 013.183-11.78c3.403-8.108 9.558-15.567 17.037-20.245 7.251-4.536 16.069-7.398 23.936-10.789l48.922-20.965c48.55-20.626 96.799-42.097 145.625-62.049l.26.212c1.283 3.049.469 63.201.663 72.343-79.209 35.148-160.017 66.688-239.479 101.235z"/><defs><linearGradient id="prefix__c" gradientUnits="userSpaceOnUse" x1="253.939" y1="478.435" x2="600" y2="537.146"><stop offset="" stop-color="#333"/><stop offset="1" stop-color="#005BFF"/></linearGradient></defs><path fill="url(#prefix__c)" d="M512.549 342.522l120.332 50.826 29.685 12.617c4.863 2.075 10.47 3.91 14.915 6.71.187.203.367.413.562.609 3.18 3.186 9.054 3.629 12.859 5.979 2.945 1.818 5.56 4.68 8.346 6.801 5.736 4.369 14.761 9.661 19.468 14.653-.123 1.766-.329 3.046-1.753 4.247-1.445 1.218-3.911 2.189-4.934 3.742-2.068 3.137-1.181 8.105-3.07 11.681-1.731 3.276-4.546 2.531-5.056 7.14-.404 3.65-.266 7.396-.243 11.063-1.158.567-1.845.562-3.098.17-.803-.251-1.593-.669-2.349-1.037-.891 1.072-1.403 2.244-2.816 2.459-1.105-.775-1.827-1.528-2.734-2.527-3.806-4.193-11.32-3.528-16.341-5.479-3.045-1.184-5.39-3.601-8.45-4.797l-.791.382c-14.688-5.89-27.82-7.439-42.707-.977a49.535 49.535 0 00-26.672 27.868c-4.638 11.928-4.605 25.757.58 37.506a51.534 51.534 0 0029.314 27.659c4.854 1.833 9.592 2.553 14.734 2.981l-2.244.483c2.222.749 10.075.66 11.183 1.883l-.49 1.225c.999 1.057 1.978 1.603 3.244 2.261 2.277 3.217 2.769 7.79 2.068 11.58-.67 3.618-2.299 7.11-2.783 10.745-.487 3.662.33 7.499-.121 11.146-.619 5.005-6.377 17.248-8.738 22.476a61.63 61.63 0 00-2.588 1.529l.174.599c-3.528 2.233-8.106 3.816-11.954 5.491-10.387 4.521-20.919 8.719-31.35 13.139l-54.267 23.095c-10.542 4.484-21.049 9.198-31.757 13.271-11.057-3.83-21.845-8.928-32.59-13.551l-47.889-20.369-175.402-74.245c-.385-15.553-.233-31.234-.032-46.79l74.062.037a73.518 73.518 0 001.732 4.877c4.552 11.381 15.104 21.708 26.315 26.5a49.707 49.707 0 0038.702.518 50.131 50.131 0 0027.192-26.893c5.192-12.331 5.395-27.315.266-39.698a49.383 49.383 0 00-27.357-26.822c-12.442-5.06-25.987-5.243-38.373.093-14.624 6.302-23.657 17.994-29.487 32.453-24.3-.885-48.776-.358-73.098-.384l.009-47.139c51.538-21.016 102.675-43.214 153.901-64.987l101.891-42.799zm-5.753 73.666c-12.674 1.501-23.482 6.64-31.508 16.821a45.583 45.583 0 00-9.37 33.501c1.478 12.089 8.247 22.836 17.856 30.197 2.486 1.904 5.143 3.517 7.873 5.041-3.454 17.466-5.496 35.35-8.257 52.954-1.734 11.061-4.881 24.133-5.328 35.155-.067 1.643.299 3.092 1.278 4.43 1.352 1.848 3.514 2.344 5.677 2.612 9.713 1.199 20.994.238 30.858.196 5.977.027 24.2 1.792 28.237-2.074 1.704-1.631 1.971-3.394 1.858-5.652-.599-12.07-3.5-24.794-5.373-36.778-2.654-16.989-4.796-34.323-8.106-51.181 11.886-7.842 20.297-16.751 23.214-31.12a45.43 45.43 0 00-6.999-34.144 45.95 45.95 0 00-29.337-19.345c-4.09-.765-8.43-1.025-12.573-.613z"/><path fill="#005BFF" d="M677.481 412.675c8.381 3.115 16.599 6.852 24.837 10.329 21.623 9.123 43.098 18.751 64.87 27.499l-.082 46.464c-24.623.019-49.283-.25-73.901.108-6.099-13.674-13.136-21.83-26.124-29.314l.791-.382c3.06 1.196 5.405 3.613 8.45 4.797 5.021 1.951 12.535 1.286 16.341 5.479.907.999 1.629 1.752 2.734 2.527 1.413-.215 1.925-1.387 2.816-2.459.756.368 1.546.786 2.349 1.037 1.253.392 1.94.397 3.098-.17-.023-3.667-.161-7.413.243-11.063.51-4.609 3.325-3.864 5.056-7.14 1.889-3.576 1.002-8.544 3.07-11.681 1.023-1.553 3.489-2.524 4.934-3.742 1.424-1.201 1.63-2.481 1.753-4.247-4.707-4.992-13.732-10.284-19.468-14.653-2.786-2.121-5.401-4.983-8.346-6.801-3.805-2.35-9.679-2.793-12.859-5.979-.195-.196-.375-.406-.562-.609z"/><path d="M491.647 501.748c-2.73-1.524-5.387-3.137-7.873-5.041-9.609-7.361-16.378-18.108-17.856-30.197a45.583 45.583 0 019.37-33.501c8.026-10.181 18.834-15.32 31.508-16.821 4.143-.412 8.483-.152 12.573.613a45.95 45.95 0 0129.337 19.345 45.43 45.43 0 016.999 34.144c-2.917 14.369-11.328 23.278-23.214 31.12 3.31 16.858 5.452 34.192 8.106 51.181 1.873 11.984 4.774 24.708 5.373 36.778.113 2.258-.154 4.021-1.858 5.652-4.037 3.866-22.26 2.101-28.237 2.074-9.864.042-21.145 1.003-30.858-.196-2.163-.268-4.325-.764-5.677-2.612-.979-1.338-1.345-2.787-1.278-4.43.447-11.022 3.594-24.094 5.328-35.155 2.761-17.604 4.803-35.488 8.257-52.954z"/><path fill="#333" d="M380.765 538.176c-14.555 1.097-27.221-9.863-28.226-24.424-1.005-14.562 10.036-27.158 24.603-28.07 14.437-.904 26.896 10.016 27.892 24.447.996 14.431-9.845 26.959-24.269 28.047z"/><path fill="#005BFF" d="M647.778 538.366c-14.201 1.742-27.157-8.273-29.049-22.455-1.892-14.182 7.986-27.243 22.147-29.285a26.101 26.101 0 116.902 51.74zm-5.743 88.359l-.174-.599a61.63 61.63 0 012.588-1.529c2.361-5.228 8.119-17.471 8.738-22.476.451-3.647-.366-7.484.121-11.146.484-3.635 2.113-7.127 2.783-10.745.701-3.79.209-8.363-2.068-11.58-1.266-.658-2.245-1.204-3.244-2.261l.49-1.225c-1.108-1.223-8.961-1.134-11.183-1.883l2.244-.483c14.343-.093 27.875-4.293 38.115-14.76 5.728-5.855 9.719-12.412 11.955-20.278 24.828-.127 49.784-.322 74.603.195.062 15.371-.014 30.756.237 46.124-21.819 10.125-44.437 18.8-66.563 28.264a2936.84 2936.84 0 01-36.171 15.214c-7.386 3.113-14.861 6.675-22.471 9.168z"/><defs><linearGradient id="prefix__d" gradientUnits="userSpaceOnUse" x1="253.846" y1="687.599" x2="499.154" y2="700.401"><stop offset="0" stop-color="#333"/><stop offset="1" stop-color="#333"/></linearGradient></defs><path fill="url(#prefix__d)" d="M496.198 781.9c-16.361-5.814-32.342-13.322-48.884-20.332l-57.732-24.996-66.806-28.964c-14.069-6.072-28.623-11.693-42.214-18.765-4.298-2.237-8.116-4.972-11.534-8.421-13.212-13.333-12.77-28.903-12.624-46.361l.257-27.541a12574.842 12574.842 0 01120.532 50.665l74.012 31.554c14.888 6.384 29.91 12.558 44.618 19.341-.278 16.657-.071 33.346-.043 50.006.013 7.754.641 16.121-.232 23.814z"/><defs><linearGradient id="prefix__e" gradientUnits="userSpaceOnUse" x1="538.963" y1="690.063" x2="766.216" y2="689.457"><stop offset="0" stop-color="#3179FFFF"/><stop offset="1" stop-color="#005BFF"/></linearGradient></defs><path fill="url(#prefix__e)" d="M544.915 700.832c7.194-3.872 15.363-6.726 22.898-9.918l48.518-20.437a6597.935 6597.935 0 01115.68-48.878c11.741-4.807 23.389-9.988 35.227-14.532.124 8.337.191 16.676.2 25.015.044 18.431-.862 33.488-14.472 47.406a48.706 48.706 0 01-11.827 8.996c-8.314 4.516-17.294 8.049-25.962 11.851a3409.614 3409.614 0 00-39.201 17.425 2196.76 2196.76 0 01-86.33 37.061c-11.33 4.696-25.303 11.441-36.58 15.198l-.025-.332-.387-.28-5.54 2.036-.304-.54c.27-4.361 2.871-8.318 4.863-12.12a33.472 33.472 0 01-1.053-2.353c-.409-1.028-.389-.514.085-1.616l1.165-.047c1.704-4.254 5.104-9.724 5.702-14.123.428-3.152-1.692-5.562-2.041-8.561-.58-4.966.827-10.465 1.508-15.372.224-1.62.768-3.166-.35-4.542-3.129-3.849-11.793-7.193-16.675-7.704-.178-.019-.356-.03-.534-.045l.139-.484a77.16 77.16 0 005.215-2.332l.081-.772z"/><path fill="#005BFF" d="M527.81 708.027c5.669-2.464 11.312-5.034 17.105-7.195l-.081.772a77.16 77.16 0 01-5.215 2.332l-.139.484c.178.015.356.026.534.045 4.882.511 13.546 3.855 16.675 7.704 1.118 1.376.574 2.922.35 4.542-.681 4.907-2.088 10.406-1.508 15.372.349 2.999 2.469 5.409 2.041 8.561-.598 4.399-3.998 9.869-5.702 14.123l-1.165.047c-.474 1.102-.494.588-.085 1.616.321.807.672 1.574 1.053 2.353-1.992 3.802-4.593 7.759-4.863 12.12l.304.54 5.54-2.036.387.28.025.332c-7.924 3.826-16.542 7.513-24.837 10.436-.232-24.131.547-48.309-.419-72.428z"/></svg>