<svg xmlns="http://www.w3.org/2000/svg" width="1024" height="1024"><path fill="#005BFF" d="M491.948 352.29l-.339-122.879c13.62-.339 27.303-.058 40.929-.034l-.047 123.018a112.32 112.32 0 0114.545 6.732c34.573 19.368 54.064 53.894 64.437 90.812l-34.631-.039c-.616-2.892-1.324-5.733-2.189-8.563-7.421-24.255-22.602-47.707-45.491-59.83a46.017 46.017 0 00-6.734-2.563c-9.924-3.001-20.763-1.448-29.819 3.431-25.576 13.783-37.928 41.158-45.92 67.607l-34.206-.02c2.844-10.739 6.033-21.253 10.69-31.367 13.466-29.248 38.436-55 68.775-66.305z"/><path fill="#005BFF" d="M318.467 397.037c12.236-9.331 25.3-17.847 37.944-26.621l82.633-57.721c12.331-8.718 24.934-16.996 36.906-26.213 1.525 1.53.474 24.719.976 28.735a9163.952 9163.952 0 01-92.519 65.042c-13.882 9.603-27.63 19.543-41.864 28.614l-.061 55.835c-.035 13.776-.421 27.644.211 41.402a293.719 293.719 0 0014.896 79.712c20.612 62.536 63.025 113.814 114.385 154.06 12.576 9.854 25.856 20.145 40.165 27.36 6.222-3.546 12.21-7.92 18.097-12.015a435.024 435.024 0 0057.41-46.938c51.291-50.764 85.959-115.466 92.48-188.027 1.583-17.619 1.367-35.161 1.333-52.824l.035-57.865c-16.391-12.997-34.516-24.406-51.611-36.495-27.185-19.226-54.148-39.032-81.898-57.418-.041-9.746.044-19.491.254-29.234 15.142 9.207 30.181 21.075 44.862 31.253 8.999 6.707 18.403 12.929 27.586 19.385l51.363 36.096c11.277 7.871 23.021 15.501 33.772 24.073-1.328 55.26 4.411 111.608-8.17 165.851-13.017 56.124-38.356 102.709-76.849 145.388a379.484 379.484 0 01-47.989 45.457c-19.333 15.37-39.972 28.851-60.912 41.901-33.236-18.912-69.564-47.109-96.504-74.182-54.695-54.963-88.534-121.691-95.465-199.333-1.712-19.175-1.432-38.197-1.445-57.42l-.021-67.858z"/><path fill="#1A1A1AFF" d="M412.372 480.925c6.98.731 14.708.054 21.753.041l46.081-.026 84.075.032c15.666.01 31.388.32 47.044-.094-1.918 3.734-2.626 8.609-3.749 12.67a119.094 119.094 0 01-4.277 12.536c-18.951-.216-37.921-.042-56.875-.043l.033 26.639c-4.078 4.296-8.609 8.178-13.027 12.117l.076 65.679-41.565-.088-.267-65.153a85.649 85.649 0 01-13.951-12.471l.03-26.385c-18.334-1.069-38.774-.146-57.331-.29-2.529-5.418-4.071-11.507-5.646-17.263-.728-2.662-1.112-5.444-2.404-7.901z"/><path fill="#1A1A1AFF" d="M611.325 480.878c.371.706.549 1.266.628 2.063.866 8.791 1.107 17.655 1.81 26.463a913.91 913.91 0 004.383 41.206c2.18 16.613 4.894 34.394 10.601 50.218-16.275 30.572-44.298 63.026-73.166 82.309l.046-124.586c22.8-11.308 37.719-29.237 47.672-52.467a119.094 119.094 0 004.277-12.536c1.123-4.061 1.831-8.936 3.749-12.67zM412.372 480.925c1.292 2.457 1.676 5.239 2.404 7.901 1.575 5.756 3.117 11.845 5.646 17.263a76.807 76.807 0 001.777 4.518c8.997 21.119 24.773 38.96 46.31 47.657l-.219 124.894c-28.134-17.954-57.606-52.732-72.449-82.472 7.099-26.617 11.209-52.883 13.562-80.321a1091.82 1091.82 0 001.643-25.247c.293-4.679.262-9.632 1.326-14.193z"/></svg>