<svg xmlns="http://www.w3.org/2000/svg" style="display:block" viewBox="0 0 2048 2048" preserveAspectRatio="none"><defs><linearGradient id="b" gradientUnits="userSpaceOnUse" x1="1446.97" y1="1032.75" x2="589.808" y2="997.966" gradientTransform="matrix(1.39973 0 0 1.32421 -410.7 -334.964)"><stop class="stop0" offset="0" stop-color="#005BFF"/><stop class="stop1" offset="1" stop-color="#00a6ff"/></linearGradient><linearGradient id="a" gradientUnits="userSpaceOnUse" x1="1625.41" y1="1079.04" x2="641.191" y2="987.142" gradientTransform="matrix(1.39973 0 0 1.32421 -410.7 -334.964)" spreadMethod="pad"><stop class="stop0" offset="0" stop-color="#005BFF"/><stop class="stop1" offset="1" stop-color="#00a6ff"/></linearGradient></defs><path d="M856.091 20.845c32.692-8.797 113.269-9.615 148.689-10.236 240.96-4.223 483.18 51.481 697.15 156.01 71.53 34.983 131.62 117.394 152.4 190.251 16.65 57.123 11.65 134.715 11.6 195.488l-.02 417c0 223.172-11.8 363.832-132.94 564.342-109.72 183.59-331.21 332.64-520.14 432.83-145.56 70.3-170.89 106.73-337.455 21.77-176.333-89.95-455.675-270.11-547.846-445.43-5.647-5.27-13.218-20.92-17.749-27.69-118.864-177.31-128.205-320.48-128.206-519.581V517.693c-.003-84.637-5.877-151.781 39.924-227.847 59.39-98.636 199.374-164.655 308.806-197.866 82.368-34.117 240.404-65.873 325.787-71.135M375.416 1380.55c7.147 10.2 14.292 28.85 21.237 40.72 119.159 203.75 330.888 360.02 550.361 458.83 38.113 17.16 103.186 20.01 141.526 2.77 300.22-134.93 591.44-372.02 638.44-700.42 6.8-47.56 4.49-100.7 4.48-148.85V583.751c.02-144.71 18.23-270.403-157.57-337.598C1208.37 93.378 870.508 95.192 504.609 229.768l-1.151.604c-65.992 34.072-108.597 36.804-153.835 103.28-50.59 74.339-38.213 159.51-38.216 244.204l.004 421.466c-.042 156.328 6.329 236.348 64.005 381.228" style="stroke-width:1.204" fill="url(#a)"/><path fill="url(#b)" d="M970.083 245.139c141.867-1.249 256.997 5.619 395.917 44.6 48.35 13.564 162.35 52.907 201.38 79.335 66.48 45.009 47.5 117.373 47.51 186.611l.03 448.285c0 40.26 1.92 84.53-1.17 124.44-23.97 311.17-281.06 503.27-548.37 637.86-17.15 9.32-50.67 17.03-69.378 8.45-269.7-123.63-537.662-336.56-558.141-639.3-3.87-55.06-2.525-110.02-2.524-165.229l-.039-434.137c-.012-132.306-16.088-144.583 126.055-203.177 134.373-55.392 262.618-78.855 408.73-87.738M801.492 647.462c-75.774 39.262-137.815 106.164-163.449 184.671-13.301 45.816-16.176 208.787-4.459 255.707 17.304 69.29 65.617 137.6 122.663 183.48 36.65 29.48 46.197 16.92 45.586 64.08l-.495 52.04c-.139 39.72-1.495 94.71 63.091 89.17 55.574-4.77 50.217-56.98 49.786-95 1.823-89.12-2.396-179.56-.036-268.48 48.507-9.06 101.211-25.17 151.201-35.06 19.29-6.2 45.21-12.85 65.09-16.98-1.54 20.78-.05 36.86-.18 57.29l.11 258.84c-.02 18.35-1.06 38.16.81 56.5 5.72 56.61 112.85 59.01 112.49-16.62-.18-36.85-.43-74.23-.44-111.34 82.93-49.91 150.86-125.42 168.44-218.65 35.32-187.135 14.11-336.698-168.44-439.648-5.9-120.301-104.63-213.228-234.04-206.039l-2.58.163c-118.37 7.307-200.026 96.963-205.148 205.876" style="stroke-width:1.204;fill-rule:nonzero"/><path fill="#00a6ff" d="M1020.62 547.437c48.19-2.498 100.78 32.66 107.83 78.193 4.86 31.353 2.05 72.548 2.03 105.095l-.01 219.123c-30.78 10.354-95.01 23.709-128.56 31.648-30.96 8.227-55.873 15.922-87.731 20.464l-.196-322.85c-.287-73.224 20.214-123.545 106.637-131.673m222.64 225.171c23.13 12.957 46.64 65.874 53.07 88.856 20.61 73.641 17.04 206.926-26.84 278.066-8.52 12.45-17.41 24.66-26.23 36.91zm-441.768 12.489c1.77 2.407.061 42.763.043 49.002l-.043 334.281c-8.741-10.17-17.135-22.48-24.784-33.49-35.005-56.98-40.328-92.97-39.687-157.577.64-64.429 7.507-148.453 64.471-192.216" style="stroke-width:1.204"/></svg>